<svg width="126" height="129" viewBox="0 0 126 129" fill="none" xmlns="http://www.w3.org/2000/svg">
<path d="M125.994 59.34L102.701 47.1747L98.2804 49.4837L98.2762 12.1634L74.9792 0L30.5199 23.235V30.8497L23.295 27.1012L0 39.2665V85.7158L44.4613 108.923L58.2375 101.729V116.844L81.5469 129L81.551 128.996L81.5552 129L126 105.771L125.994 59.34ZM102.709 51.6224L119.622 60.4543L102.726 69.3683L90.2825 62.8155L98.2866 58.6445V53.9332L102.709 51.6224ZM67.7667 87.5368V72.4157L46.6003 61.3703V55.958L74.9916 70.7761L79.4162 68.4728V81.4495L67.7667 87.5368ZM42.3431 43.7123V61.3591L25.4319 70.1966V52.546L42.3431 43.7123ZM58.1114 57.4966L72.865 49.794V65.2198L58.0969 57.506L58.1155 57.4966H58.1114ZM83.6693 66.2555L86.0274 65.0291L100.583 72.6962V90.2888L83.6693 81.4532V66.2555ZM94.0314 56.1561V56.3898L77.1181 65.2217V43.1253L55.9518 54.18V36.5163L94.0314 16.613V56.1561ZM74.8573 4.51313L91.9028 13.2795L53.8645 33.1418L36.9099 24.3492L74.8573 4.51313ZM34.7833 27.6827L51.6945 36.5182V54.18L46.5982 51.5196V39.1898L34.7833 33.0595V27.6827ZM23.3032 31.547L39.9644 40.4929L23.2867 49.2032L6.39206 40.3789L23.3032 31.547ZM42.3431 103.361L4.26344 83.491V43.7123L21.1746 52.546V74.719L42.3431 85.6971V103.361ZM27.575 73.5375L44.4861 64.7057L61.3829 73.53L44.4696 82.3637L27.575 73.5375ZM46.5982 103.361V85.7158L63.5094 76.8803V89.7616L58.2437 92.5117V97.2847L46.5982 103.361ZM79.4142 123.453L62.4988 114.619V96.9538L78.9016 105.52L79.4142 105.791V123.453ZM64.6295 93.6185L81.5428 84.7867L98.423 93.6017L98.4064 93.6091L98.423 93.6185L81.6916 102.359L64.6295 93.6185ZM121.749 103.566L83.6693 123.453V105.857L104.832 94.7496L104.836 72.6924L121.749 63.7896V103.566Z" fill="#274190"/>
</svg>
